REM DIRINDEX 1\2,1\3,1\4,1\5\6,1\5\7,1\8
REM DIRNAME cjc115,folder01,folder02,folder03,folder04,folder05,folder06,folder07
TITLE ""
FILE "076 Åy076ÅzUnit4 (DATA FILE_í∑ï∂ñ‚ëËÇ…èoåªÇ∑ÇÈêÍñÂópåÍ4).mp3" MP3
  TRACK 01 AUDIO
    TITLE "0:"
    INDEX 01 00:00:00
  TRACK 02 AUDIO
    TITLE "8:cjc115_2938"
    INDEX 01 00:00:01
  TRACK 03 AUDIO
    TITLE "0:"
    INDEX 01 00:01:26
  TRACK 04 AUDIO
    TITLE "6:cjc115_2939"
    INDEX 01 00:01:68
  TRACK 05 AUDIO
    TITLE "0:"
    INDEX 01 00:04:01
  TRACK 06 AUDIO
    TITLE "7:cjc115_2940"
    INDEX 01 00:04:09
  TRACK 07 AUDIO
    TITLE "0:"
    INDEX 01 00:06:00
  TRACK 08 AUDIO
    TITLE "6:cjc115_2941"
    INDEX 01 00:07:07
  TRACK 09 AUDIO
    TITLE "0:"
    INDEX 01 00:08:54
  TRACK 10 AUDIO
    TITLE "7:cjc115_2942"
    INDEX 01 00:08:62
  TRACK 11 AUDIO
    TITLE "0:"
    INDEX 01 00:10:08
  TRACK 12 AUDIO
    TITLE "6:cjc115_2943"
    INDEX 01 00:11:15
  TRACK 13 AUDIO
    TITLE "0:"
    INDEX 01 00:12:48
  TRACK 14 AUDIO
    TITLE "7:cjc115_2944"
    INDEX 01 00:12:54
  TRACK 15 AUDIO
    TITLE "0:"
    INDEX 01 00:14:33
  TRACK 16 AUDIO
    TITLE "6:cjc115_2945"
    INDEX 01 00:15:40
  TRACK 17 AUDIO
    TITLE "0:"
    INDEX 01 00:16:71
  TRACK 18 AUDIO
    TITLE "7:cjc115_2946"
    INDEX 01 00:17:06
  TRACK 19 AUDIO
    TITLE "0:"
    INDEX 01 00:18:25
  TRACK 20 AUDIO
    TITLE "6:cjc115_2947"
    INDEX 01 00:19:32
  TRACK 21 AUDIO
    TITLE "0:"
    INDEX 01 00:21:17
  TRACK 22 AUDIO
    TITLE "7:cjc115_2948"
    INDEX 01 00:21:25
  TRACK 23 AUDIO
    TITLE "0:"
    INDEX 01 00:23:03
  TRACK 24 AUDIO
    TITLE "6:cjc115_2949"
    INDEX 01 00:24:12
  TRACK 25 AUDIO
    TITLE "0:"
    INDEX 01 00:25:54
  TRACK 26 AUDIO
    TITLE "7:cjc115_2950"
    INDEX 01 00:25:58
  TRACK 27 AUDIO
    TITLE "0:"
    INDEX 01 00:27:24
  TRACK 28 AUDIO
    TITLE "6:cjc115_2951"
    INDEX 01 00:28:33
  TRACK 29 AUDIO
    TITLE "0:"
    INDEX 01 00:30:10
  TRACK 30 AUDIO
    TITLE "7:cjc115_2952"
    INDEX 01 00:30:18
  TRACK 31 AUDIO
    TITLE "0:"
    INDEX 01 00:31:51
  TRACK 32 AUDIO
    TITLE "6:cjc115_2953"
    INDEX 01 00:32:60
  TRACK 33 AUDIO
    TITLE "0:"
    INDEX 01 00:34:18
  TRACK 34 AUDIO
    TITLE "7:cjc115_2954"
    INDEX 01 00:34:24
  TRACK 35 AUDIO
    TITLE "0:"
    INDEX 01 00:35:63
  TRACK 36 AUDIO
    TITLE "6:cjc115_2955"
    INDEX 01 00:36:72
  TRACK 37 AUDIO
    TITLE "0:"
    INDEX 01 00:38:26
  TRACK 38 AUDIO
    TITLE "7:cjc115_2956"
    INDEX 01 00:38:35
  TRACK 39 AUDIO
    TITLE "0:"
    INDEX 01 00:40:58
  TRACK 40 AUDIO
    TITLE "6:cjc115_2957"
    INDEX 01 00:41:67
  TRACK 41 AUDIO
    TITLE "0:"
    INDEX 01 00:43:03
  TRACK 42 AUDIO
    TITLE "7:cjc115_2958"
    INDEX 01 00:43:09
  TRACK 43 AUDIO
    TITLE "0:"
    INDEX 01 00:44:24
  TRACK 44 AUDIO
    TITLE "6:cjc115_2959"
    INDEX 01 00:45:30
  TRACK 45 AUDIO
    TITLE "0:"
    INDEX 01 00:46:72
  TRACK 46 AUDIO
    TITLE "7:cjc115_2960"
    INDEX 01 00:47:05
  TRACK 47 AUDIO
    TITLE "0:"
    INDEX 01 00:48:42
  TRACK 48 AUDIO
    TITLE "6:cjc115_2961"
    INDEX 01 00:49:53
  TRACK 49 AUDIO
    TITLE "0:"
    INDEX 01 00:51:09
  TRACK 50 AUDIO
    TITLE "7:cjc115_2962"
    INDEX 01 00:51:16
  TRACK 51 AUDIO
    TITLE "0:"
    INDEX 01 00:52:24
  TRACK 52 AUDIO
    TITLE "6:cjc115_2963"
    INDEX 01 00:53:31
  TRACK 53 AUDIO
    TITLE "0:"
    INDEX 01 00:54:50
  TRACK 54 AUDIO
    TITLE "7:cjc115_2964"
    INDEX 01 00:54:58
  TRACK 55 AUDIO
    TITLE "0:"
    INDEX 01 00:56:39
  TRACK 56 AUDIO
    TITLE "6:cjc115_2965"
    INDEX 01 00:57:50
  TRACK 57 AUDIO
    TITLE "0:"
    INDEX 01 00:59:26
  TRACK 58 AUDIO
    TITLE "7:cjc115_2966"
    INDEX 01 00:59:28
  TRACK 59 AUDIO
    TITLE "0:"
    INDEX 01 01:00:64
  TRACK 60 AUDIO
    TITLE "6:cjc115_2967"
    INDEX 01 01:01:72
  TRACK 61 AUDIO
    TITLE "0:"
    INDEX 01 01:03:22
  TRACK 62 AUDIO
    TITLE "7:cjc115_2968"
    INDEX 01 01:03:29
  TRACK 63 AUDIO
    TITLE "0:"
    INDEX 01 01:04:56
  TRACK 64 AUDIO
    TITLE "6:cjc115_2969"
    INDEX 01 01:05:68
  TRACK 65 AUDIO
    TITLE "0:"
    INDEX 01 01:07:12
  TRACK 66 AUDIO
    TITLE "7:cjc115_2970"
    INDEX 01 01:07:19
  TRACK 67 AUDIO
    TITLE "0:"
    INDEX 01 01:09:65
  TRACK 68 AUDIO
    TITLE "6:cjc115_2971"
    INDEX 01 01:11:00
  TRACK 69 AUDIO
    TITLE "0:"
    INDEX 01 01:12:17
  TRACK 70 AUDIO
    TITLE "7:cjc115_2972"
    INDEX 01 01:12:24
  TRACK 71 AUDIO
    TITLE "0:"
    INDEX 01 01:13:40
  TRACK 72 AUDIO
    TITLE "6:cjc115_2973"
    INDEX 01 01:14:49
  TRACK 73 AUDIO
    TITLE "0:"
    INDEX 01 01:15:60
  TRACK 74 AUDIO
    TITLE "7:cjc115_2974"
    INDEX 01 01:15:68
  TRACK 75 AUDIO
    TITLE "0:"
    INDEX 01 01:19:21
  TRACK 76 AUDIO
    TITLE "6:cjc115_2975"
    INDEX 01 01:20:28
  TRACK 77 AUDIO
    TITLE "0:"
    INDEX 01 01:21:57
  TRACK 78 AUDIO
    TITLE "7:cjc115_2976"
    INDEX 01 01:21:63
  TRACK 79 AUDIO
    TITLE "0:"
    INDEX 01 01:24:16
  TRACK 80 AUDIO
    TITLE "6:cjc115_2977"
    INDEX 01 01:25:25
  TRACK 81 AUDIO
    TITLE "0:"
    INDEX 01 01:26:56
  TRACK 82 AUDIO
    TITLE "7:cjc115_2978"
    INDEX 01 01:26:62
  TRACK 83 AUDIO
    TITLE "0:"
    INDEX 01 01:28:04
  TRACK 84 AUDIO
    TITLE "6:cjc115_2979"
    INDEX 01 01:29:11
  TRACK 85 AUDIO
    TITLE "0:"
    INDEX 01 01:30:50
  TRACK 86 AUDIO
    TITLE "7:cjc115_2980"
    INDEX 01 01:30:58
  TRACK 87 AUDIO
    TITLE "0:"
    INDEX 01 01:32:12
  TRACK 88 AUDIO
    TITLE "6:cjc115_2981"
    INDEX 01 01:33:19
  TRACK 89 AUDIO
    TITLE "0:"
    INDEX 01 01:34:44
  TRACK 90 AUDIO
    TITLE "7:cjc115_2982"
    INDEX 01 01:34:54
  TRACK 91 AUDIO
    TITLE "0:"
    INDEX 01 01:37:09
  TRACK 92 AUDIO
    TITLE "6:cjc115_2983"
    INDEX 01 01:38:18
  TRACK 93 AUDIO
    TITLE "0:"
    INDEX 01 01:39:37
  TRACK 94 AUDIO
    TITLE "7:cjc115_2984"
    INDEX 01 01:39:47
  TRACK 95 AUDIO
    TITLE "0:"
    INDEX 01 01:43:23
  TRACK 96 AUDIO
    TITLE "6:cjc115_2985"
    INDEX 01 01:44:32
  TRACK 97 AUDIO
    TITLE "0:"
    INDEX 01 01:45:42
  TRACK 98 AUDIO
    TITLE "7:cjc115_2986"
    INDEX 01 01:45:55
  TRACK 99 AUDIO
    TITLE "0:"
    INDEX 01 01:47:56
  TRACK 100 AUDIO
    TITLE "6:cjc115_2987"
    INDEX 01 01:48:65
  TRACK 101 AUDIO
    TITLE "0:"
    INDEX 01 01:50:70
  TRACK 102 AUDIO
    TITLE "7:cjc115_2988"
    INDEX 01 01:51:03
  TRACK 103 AUDIO
    TITLE "0:"
    INDEX 01 01:52:38
  TRACK 104 AUDIO
    TITLE "6:cjc115_2989"
    INDEX 01 01:53:43
  TRACK 105 AUDIO
    TITLE "0:"
    INDEX 01 01:55:03
  TRACK 106 AUDIO
    TITLE "7:cjc115_2990"
    INDEX 01 01:55:15
  TRACK 107 AUDIO
    TITLE "0:"
    INDEX 01 01:57:19
  TRACK 108 AUDIO
    TITLE "6:cjc115_2991"
    INDEX 01 01:58:27
  TRACK 109 AUDIO
    TITLE "0:"
    INDEX 01 01:59:63
  TRACK 110 AUDIO
    TITLE "7:cjc115_2992"
    INDEX 01 01:59:67
  TRACK 111 AUDIO
    TITLE "0:"
    INDEX 01 02:02:01
  TRACK 112 AUDIO
    TITLE "6:cjc115_2993"
    INDEX 01 02:03:06
  TRACK 113 AUDIO
    TITLE "0:"
    INDEX 01 02:04:15
  TRACK 114 AUDIO
    TITLE "7:cjc115_2994"
    INDEX 01 02:04:25
  TRACK 115 AUDIO
    TITLE "0:"
    INDEX 01 02:05:25
  TRACK 116 AUDIO
    TITLE "6:cjc115_2995"
    INDEX 01 02:06:34
  TRACK 117 AUDIO
    TITLE "0:"
    INDEX 01 02:07:61
  TRACK 118 AUDIO
    TITLE "7:cjc115_2996"
    INDEX 01 02:08:00
  TRACK 119 AUDIO
    TITLE "0:"
    INDEX 01 02:09:24
  TRACK 120 AUDIO
    TITLE "6:cjc115_2997"
    INDEX 01 02:10:34
  TRACK 121 AUDIO
    TITLE "0:"
    INDEX 01 02:11:55
  TRACK 122 AUDIO
    TITLE "7:cjc115_2998"
    INDEX 01 02:11:57
  TRACK 123 AUDIO
    TITLE "0:"
    INDEX 01 02:14:51
  TRACK 124 AUDIO
    TITLE "6:cjc115_2999"
    INDEX 01 02:15:58
  TRACK 125 AUDIO
    TITLE "0:"
    INDEX 01 02:17:44
  TRACK 126 AUDIO
    TITLE "7:cjc115_3000"
    INDEX 01 02:17:49
  TRACK 127 AUDIO
    TITLE "0:"
    INDEX 01 02:19:68
  TRACK 128 AUDIO
    TITLE "6:cjc115_3001"
    INDEX 01 02:21:00
  TRACK 129 AUDIO
    TITLE "0:"
    INDEX 01 02:22:53
  TRACK 130 AUDIO
    TITLE "7:cjc115_3002"
    INDEX 01 02:22:62
  TRACK 131 AUDIO
    TITLE "0:"
    INDEX 01 02:24:14
  TRACK 132 AUDIO
    TITLE "6:cjc115_3003"
    INDEX 01 02:25:21
  TRACK 133 AUDIO
    TITLE "0:"
    INDEX 01 02:27:07
  TRACK 134 AUDIO
    TITLE "7:cjc115_3004"
    INDEX 01 02:27:14
  TRACK 135 AUDIO
    TITLE "0:"
    INDEX 01 02:28:45
  TRACK 136 AUDIO
    TITLE "6:cjc115_3005"
    INDEX 01 02:29:57
  TRACK 137 AUDIO
    TITLE "0:"
    INDEX 01 02:31:26
  TRACK 138 AUDIO
    TITLE "7:cjc115_3006"
    INDEX 01 02:31:36
  TRACK 139 AUDIO
    TITLE "0:"
    INDEX 01 02:35:12
  TRACK 140 AUDIO
    TITLE "6:cjc115_3007"
    INDEX 01 02:36:19
  TRACK 141 AUDIO
    TITLE "0:"
    INDEX 01 02:37:56
  TRACK 142 AUDIO
    TITLE "7:cjc115_3008"
    INDEX 01 02:37:64
  TRACK 143 AUDIO
    TITLE "0:"
    INDEX 01 02:40:37
  TRACK 144 AUDIO
    TITLE "6:cjc115_3009"
    INDEX 01 02:41:44
  TRACK 145 AUDIO
    TITLE "0:"
    INDEX 01 02:43:49
  TRACK 146 AUDIO
    TITLE "7:cjc115_3010"
    INDEX 01 02:43:57
  TRACK 147 AUDIO
    TITLE "0:"
    INDEX 01 02:45:01
  TRACK 148 AUDIO
    TITLE "6:cjc115_3011"
    INDEX 01 02:46:08
  TRACK 149 AUDIO
    TITLE "0:"
    INDEX 01 02:47:25
  TRACK 150 AUDIO
    TITLE "7:cjc115_3012"
    INDEX 01 02:47:29
  TRACK 151 AUDIO
    TITLE "0:"
    INDEX 01 02:49:59
  TRACK 152 AUDIO
    TITLE "6:cjc115_3013"
    INDEX 01 02:50:66
  TRACK 153 AUDIO
    TITLE "0:"
    INDEX 01 02:52:48
  TRACK 154 AUDIO
    TITLE "7:cjc115_3014"
    INDEX 01 02:52:60
  TRACK 155 AUDIO
    TITLE "0:"
    INDEX 01 02:55:56
  TRACK 156 AUDIO
    TITLE "6:cjc115_3015"
    INDEX 01 02:56:69
  TRACK 157 AUDIO
    TITLE "0:"
    INDEX 01 02:58:05
  TRACK 158 AUDIO
    TITLE "7:cjc115_3016"
    INDEX 01 02:58:15
  TRACK 159 AUDIO
    TITLE "0:"
    INDEX 01 02:59:32
  TRACK 160 AUDIO
    TITLE "6:cjc115_3017"
    INDEX 01 03:00:45
  TRACK 161 AUDIO
    TITLE "0:"
    INDEX 01 03:01:70
  TRACK 162 AUDIO
    TITLE "7:cjc115_3018"
    INDEX 01 03:02:01
  TRACK 163 AUDIO
    TITLE "0:"
    INDEX 01 03:03:18
  TRACK 164 AUDIO
    TITLE "6:cjc115_3019"
    INDEX 01 03:04:24
  TRACK 165 AUDIO
    TITLE "0:"
    INDEX 01 03:05:66
  TRACK 166 AUDIO
    TITLE "7:cjc115_3020"
    INDEX 01 03:05:74
  TRACK 167 AUDIO
    TITLE "0:"
    INDEX 01 03:06:67
  TRACK 168 AUDIO
    TITLE "6:cjc115_3021"
    INDEX 01 03:08:02
  TRACK 169 AUDIO
    TITLE "0:"
    INDEX 01 03:09:19
  TRACK 170 AUDIO
    TITLE "7:cjc115_3022"
    INDEX 01 03:09:27
  TRACK 171 AUDIO
    TITLE "0:"
    INDEX 01 03:10:34
  TRACK 172 AUDIO
    TITLE "6:cjc115_3023"
    INDEX 01 03:11:43
  TRACK 173 AUDIO
    TITLE "0:"
    INDEX 01 03:12:68
  TRACK 174 AUDIO
    TITLE "7:cjc115_3024"
    INDEX 01 03:12:72
  TRACK 175 AUDIO
    TITLE "0:"
    INDEX 01 03:14:24
  TRACK 176 AUDIO
    TITLE "6:cjc115_3025"
    INDEX 01 03:15:35
  TRACK 177 AUDIO
    TITLE "0:"
    INDEX 01 03:17:36
  TRACK 178 AUDIO
    TITLE "7:cjc115_3026"
    INDEX 01 03:17:44
  TRACK 179 AUDIO
    TITLE "0:"
    INDEX 01 03:19:33
  TRACK 180 AUDIO
    TITLE "6:cjc115_3027"
    INDEX 01 03:20:42
  TRACK 181 AUDIO
    TITLE "0:"
    INDEX 01 03:21:65
  TRACK 182 AUDIO
    TITLE "7:cjc115_3028"
    INDEX 01 03:22:00
  TRACK 183 AUDIO
    TITLE "0:"
    INDEX 01 03:24:01
  TRACK 184 AUDIO
    TITLE "6:cjc115_3029"
    INDEX 01 03:25:10
  TRACK 185 AUDIO
    TITLE "0:"
    INDEX 01 03:26:49
  TRACK 186 AUDIO
    TITLE "7:cjc115_3030"
    INDEX 01 03:26:58
  TRACK 187 AUDIO
    TITLE "0:"
    INDEX 01 03:28:57
  TRACK 188 AUDIO
    TITLE "6:cjc115_3031"
    INDEX 01 03:29:65
  TRACK 189 AUDIO
    TITLE "0:"
    INDEX 01 03:31:42
  TRACK 190 AUDIO
    TITLE "7:cjc115_3032"
    INDEX 01 03:31:50
  TRACK 191 AUDIO
    TITLE "0:"
    INDEX 01 03:33:17
  TRACK 192 AUDIO
    TITLE "6:cjc115_3033"
    INDEX 01 03:34:27
  TRACK 193 AUDIO
    TITLE "0:"
    INDEX 01 03:36:06
  TRACK 194 AUDIO
    TITLE "7:cjc115_3034"
    INDEX 01 03:36:14
  TRACK 195 AUDIO
    TITLE "0:"
    INDEX 01 03:37:35
